<?xml version="1.0" encoding="UTF-8" standalone="no"?>
<!-- Created with Inkscape (http://www.inkscape.org/) -->

<svg
   width="192"
   height="192"
   viewBox="0 0 50.800001 50.800001"
   version="1.1"
   id="svg5"
   xml:space="preserve"
   inkscape:version="1.2.1 (9c6d41e410, 2022-07-14)"
   sodipodi:docname="drawing.svg"
   inkscape:export-filename="drawing.png"
   inkscape:export-xdpi="96"
   inkscape:export-ydpi="96"
   xmlns:inkscape="http://www.inkscape.org/namespaces/inkscape"
   xmlns:sodipodi="http://sodipodi.sourceforge.net/DTD/sodipodi-0.dtd"
   xmlns="http://www.w3.org/2000/svg"
   xmlns:svg="http://www.w3.org/2000/svg"><sodipodi:namedview
     id="namedview7"
     pagecolor="#ffffff"
     bordercolor="#111111"
     borderopacity="1"
     inkscape:showpageshadow="0"
     inkscape:pageopacity="0"
     inkscape:pagecheckerboard="1"
     inkscape:deskcolor="#d1d1d1"
     inkscape:document-units="mm"
     showgrid="false"
     inkscape:zoom="2.0913616"
     inkscape:cx="98.261343"
     inkscape:cy="105.4337"
     inkscape:window-width="1920"
     inkscape:window-height="991"
     inkscape:window-x="-9"
     inkscape:window-y="-9"
     inkscape:window-maximized="1"
     inkscape:current-layer="layer1" /><defs
     id="defs2"><clipPath
       clipPathUnits="userSpaceOnUse"
       id="clipPath351"><circle
         style="fill:#2b2200;stroke-width:0.264583"
         id="circle353"
         cx="84.542801"
         cy="118.82049"
         r="42" /></clipPath></defs><g
     inkscape:label="Layer 1"
     inkscape:groupmode="layer"
     id="layer1"><g
       id="g305"
       transform="matrix(0.396875,0,0,0.396875,-3.7703121,-3.7703117)"
       style="stroke-width:2.51969"><rect
         style="fill:#ffffff;stroke:none;stroke-width:0.666666;stroke-opacity:1"
         id="rect2882"
         width="128"
         height="128"
         x="9.4999971"
         y="9.499999"
         ry="63.999996" /><g
         id="g3687"
         transform="matrix(1.4264155,0,0,1.4264155,-37.571937,-92.702807)"
         style="stroke-width:1.76646"><path
           id="path407"
           style="fill:#0000ff;stroke-width:0.467368"
           d="M 77.867868,74.51779 A 42,42.000004 0 0 0 35.867848,116.5178 42,42.000004 0 0 0 77.867868,158.51782 42,42.000004 0 0 0 119.86789,116.5178 42,42.000004 0 0 0 77.867868,74.51779 Z m 0,3.132108 A 38.86771,38.86771 0 0 1 116.73527,116.5178 38.86771,38.86771 0 0 1 77.867868,155.3852 38.86771,38.86771 0 0 1 38.999958,116.5178 38.86771,38.86771 0 0 1 77.867868,77.649898 Z" /><path
           style="fill:#0000ff;stroke-width:1.76646"
           d="m 78.984139,162.71258 -2.54,-0.28937 -2.645827,-0.66353 -2.64583,-0.66354 -2.01084,-0.74056 -2.01083,-0.74056 -2.32833,-1.12201 -2.32834,-1.12201 -2.36155,-1.57537 -2.36156,-1.57537 -1.55428,-1.27343 -1.55427,-1.27343 -1.66437,-1.66667 -1.66436,-1.66668 -1.28227,-1.5875 -1.28226,-1.5875 -1.31921,-2.01083 -1.3192,-2.01083 -1.16328,-2.2225 -1.16328,-2.2225 -0.76018,-1.92635 -0.76018,-1.92635 -0.73907,-2.88365 -0.73906,-2.88365 -0.32123,-2.45042 -0.32122,-2.45043 v -3.36498 -3.36499 l 0.32122,-2.45043 0.32123,-2.45042 0.73906,-2.88365 0.73907,-2.88365 0.76018,-1.92635 0.76018,-1.92635 1.16328,-2.222498 1.16328,-2.2225 1.3192,-2.01083 1.31921,-2.01083 1.28226,-1.5875 1.28227,-1.5875 1.66436,-1.666672 1.66437,-1.66668 1.55427,-1.27343 1.55428,-1.27343 2.36156,-1.57537 2.36155,-1.57537 2.32834,-1.11834 2.32833,-1.11834 1.71871,-0.65528 1.7187,-0.65528 2.84852,-0.73644 2.848507,-0.73644 2.99072,-0.32988 2.99072,-0.32988 h 2.02912 2.02912 l 2.99072,0.32988 2.99072,0.32988 2.84851,0.73644 2.84852,0.73644 1.7187,0.65528 1.718711,0.65528 2.32834,1.11834 2.32833,1.11834 2.36156,1.57537 2.36156,1.57537 1.55427,1.27343 1.55428,1.27343 1.66436,1.66668 1.66436,1.666672 1.28227,1.5875 1.28227,1.5875 1.3192,2.01083 1.3192,2.01083 1.16328,2.2225 1.16328,2.222498 0.76018,1.92635 0.76018,1.92635 0.73907,2.88365 0.73907,2.88365 0.32122,2.45042 0.32122,2.45043 v 3.36499 3.36498 l -0.32122,2.45043 -0.32122,2.45042 -0.73907,2.88365 -0.73907,2.88365 -0.76018,1.92635 -0.76018,1.92635 -1.16328,2.2225 -1.16328,2.2225 -1.3192,2.01083 -1.3192,2.01083 -1.28227,1.5875 -1.28227,1.5875 -1.66436,1.66668 -1.66436,1.66667 -1.55428,1.27343 -1.55427,1.27343 -2.36156,1.57537 -2.36156,1.57537 -2.32833,1.11834 -2.32834,1.11835 -1.718711,0.65528 -1.7187,0.65527 -2.84852,0.73644 -2.84851,0.73644 -2.99072,0.32988 -2.99072,0.32989 -2.39039,-0.0245 -2.3904,-0.0245 z m 12.3825,-1.96489 2.43417,-0.42541 2.54,-0.73273 2.54,-0.73274 2.010831,-0.881 2.01084,-0.88101 1.5875,-0.86124 1.5875,-0.86125 1.905,-1.27053 1.905,-1.27052 1.78379,-1.50477 1.7838,-1.50477 2.31491,-2.54 2.31491,-2.54 1.54566,-2.32833 1.54565,-2.32834 1.0716,-2.12766 1.0716,-2.12766 0.84087,-2.26668 0.84087,-2.26668 0.52753,-2.16732 0.52752,-2.16733 0.3294,-2.24966 0.32939,-2.24967 v -3.64983 -3.64984 l -0.32939,-2.24967 -0.3294,-2.24966 -0.52752,-2.16733 -0.52753,-2.16732 -0.84087,-2.26668 -0.84087,-2.26668 -1.0716,-2.127658 -1.0716,-2.12766 -1.54565,-2.32834 -1.54566,-2.32833 -2.32115,-2.54 -2.32116,-2.540002 -1.74307,-1.47945 -1.74307,-1.47946 -1.83365,-1.23285 -1.83364,-1.23286 -1.69334,-0.92338 -1.69333,-0.92338 -2.01084,-0.88186 -2.010831,-0.88185 -2.54,-0.73273 -2.54,-0.73274 -2.43417,-0.4458 -2.43416,-0.4458 h -4.65667 -4.65667 l -2.43416,0.4458 -2.43417,0.4458 -2.539997,0.73274 -2.54,0.73273 -2.01083,0.88185 -2.01084,0.88186 -1.69333,0.92338 -1.69333,0.92338 -1.83365,1.23286 -1.83364,1.23285 -1.74308,1.47946 -1.74307,1.47945 -2.32116,2.540002 -2.32115,2.54 -1.54566,2.32833 -1.54565,2.32834 -1.0716,2.12766 -1.07159,2.127658 -0.84087,2.26668 -0.84087,2.26668 -0.52753,2.16732 -0.52753,2.16733 -0.32939,2.24966 -0.3294,2.24967 v 3.64984 3.64983 l 0.3294,2.24967 0.32939,2.24966 0.52753,2.16733 0.52753,2.16732 0.84087,2.26668 0.84087,2.26668 1.07159,2.12766 1.0716,2.12766 1.54565,2.32834 1.54566,2.32833 2.31491,2.54 2.31492,2.54 1.78379,1.50477 1.78379,1.50477 1.905,1.27305 1.905,1.27306 1.79917,0.96252 1.79917,0.96253 2.02575,0.85879 2.02576,0.85879 2.65681,0.72815 2.656817,0.72815 2.19659,0.33152 2.1966,0.33152 0.84667,0.0886 0.84666,0.0886 3.70417,-0.0717 3.70417,-0.0717 z m -11.21833,-1.62942 -0.52917,-0.0904 -1.5875,-0.22795 -1.5875,-0.22795 -2.11666,-0.52896 -2.116667,-0.52895 -2.01083,-0.75083 -2.01084,-0.75084 -2.01083,-1.00934 -2.01083,-1.00934 -2.01084,-1.32254 -2.01083,-1.32254 -1.48167,-1.21367 -1.48166,-1.21367 -2.03147,-2.09798 -2.03146,-2.09797 -1.32102,-1.78166 -1.32101,-1.78165 -1.12676,-1.91451 -1.12675,-1.91451 -0.77388,-1.69315 -0.77389,-1.69315 -0.81511,-2.43417 -0.81511,-2.43416 -0.44927,-2.32833 -0.44927,-2.32834 -0.23627,-2.80458 -0.23627,-2.80458 0.23627,-2.80459 0.23627,-2.80458 0.44927,-2.32833 0.44927,-2.32834 0.81511,-2.43416 0.81511,-2.43417 0.77389,-1.69315 0.77388,-1.69314 1.12675,-1.914518 1.12676,-1.91451 1.32101,-1.78165 1.32102,-1.78165 2.03146,-2.09798 2.03147,-2.09798 1.48427,-1.216442 1.48426,-1.21645 1.79657,-1.19836 1.79656,-1.19836 2.2225,-1.13371 2.2225,-1.13371 2.01084,-0.74786 2.01083,-0.74787 2.116667,-0.52687 2.11666,-0.52687 1.5875,-0.28362 1.5875,-0.28363 h 4.65667 4.65667 l 1.5875,0.28363 1.5875,0.28362 2.11666,0.52687 2.11667,0.52687 2.01083,0.75074 2.010841,0.75075 1.85065,0.92725 1.85065,0.92724 1.43018,0.87436 1.43019,0.87437 1.5875,1.18473 1.5875,1.18473 2.19289,2.119922 2.19288,2.11992 1.2828,1.5875 1.28279,1.5875 1.15099,1.76095 1.15099,1.76096 1.22943,2.472378 1.22943,2.47237 0.84713,2.54 0.84713,2.54 0.44926,2.32834 0.44927,2.32833 0.23627,2.80458 0.23627,2.80459 -0.23627,2.80458 -0.23627,2.80458 -0.44927,2.32834 -0.44926,2.32833 -0.81512,2.43416 -0.81511,2.43417 -0.77389,1.69315 -0.77388,1.69315 -1.12675,1.91451 -1.12675,1.91451 -1.32102,1.78165 -1.32101,1.78166 -2.03147,2.09797 -2.03146,2.09798 -1.50394,1.23251 -1.50394,1.23252 -1.74665,1.1691 -1.74666,1.16911 -2.25274,1.14689 -2.25274,1.1469 -2.010841,0.74739 -2.01083,0.7474 -1.79917,0.45917 -1.79916,0.45916 -1.69334,0.32066 -1.69333,0.32066 -4.33917,0.0679 -4.33916,0.0679 z m -7.090827,-23.72802 1.269997,-0.31166 2.65489,-1.25385 2.6549,-1.25385 h 0.35647 0.35648 l 0.34144,0.5211 0.34144,0.5211 0.11615,0.86596 0.11614,0.86595 0.55271,-0.0641 0.55271,-0.0641 0.10583,-6.10443 0.10584,-6.10443 0.4997,-0.40432 0.4997,-0.40432 h 0.39988 0.39988 v -0.58208 -0.58208 h -7.09083 -7.090827 v 0.55147 0.55148 l 1.40498,0.1312 1.40499,0.13119 0.49707,0.32569 0.497057,0.32569 0.37336,0.56932 0.37337,0.56932 0.0627,4.13732 0.0627,4.13731 -0.40817,0.65195 -0.40816,0.65194 -0.818737,0.40639 -0.81874,0.40639 h -2.01083 -2.01084 l -1.00962,-0.49717 -1.00963,-0.49717 -0.90421,-0.90421 -0.90422,-0.90422 -0.66724,-1.25188 -0.66725,-1.25188 -0.42478,-1.58007 -0.42479,-1.58006 -0.22547,-1.68038 -0.22548,-1.68038 -0.005,-3.3284 -0.005,-3.3284 0.31987,-1.97622 0.31988,-1.97622 0.34691,-1.16417 0.34692,-1.16417 0.72092,-1.52105 0.72092,-1.52105 1.06779,-1.16833 1.0678,-1.16834 1.15968,-0.56738 1.15968,-0.56738 1.42055,-0.0991 1.42056,-0.0991 1.36314,0.35587 1.363127,0.35588 0.76459,0.39006 0.76459,0.39006 1.10563,0.99406 1.10563,0.99406 0.51033,0.87508 0.51032,0.87508 0.42007,1.52311 0.42007,1.52311 0.14689,1.17564 0.14689,1.17564 h 0.57721 0.57721 l 0.13923,-3.84394 0.13924,-3.84393 v -1.88512 -1.88513 l -0.57734,0.067 -0.57733,0.067 -0.15078,0.88973 -0.15078,0.88973 -0.23183,0.43319 -0.23184,0.43318 -0.36297,-8.4e-4 -0.36297,-8.5e-4 -0.9525,-0.6457 -0.9525,-0.64571 -1.17523,-0.60531 -1.17523,-0.60531 -1.221767,-0.35518 -1.22177,-0.35518 -2.47133,0.002 -2.47133,0.002 -1.5875,0.35736 -1.5875,0.35735 -1.48167,0.6419 -1.48167,0.6419 -1.16416,0.79088 -1.16417,0.79087 -1.0684,1.13744 -1.0684,1.13743 -0.64938,0.9525 -0.64937,0.9525 -0.52823,1.05833 -0.52822,1.05834 -0.44015,1.37583 -0.44014,1.37583 -0.2556,1.65461 -0.2556,1.6546 0.12564,2.68456 0.12564,2.68457 0.41772,1.60726 0.41771,1.60727 0.62064,1.35607 0.62064,1.35606 0.99424,1.31268 0.99424,1.31267 1.31268,0.99424 1.31267,0.99425 1.27,0.5768 1.27,0.5768 1.47225,0.36499 1.47225,0.36498 1.80858,0.15899 1.80859,0.15899 1.16417,-0.0959 1.16416,-0.0959 1.27,-0.31166 z m 36.406668,-0.74632 v -0.48554 l -1.5875,-0.15774 -1.5875,-0.15774 -0.52917,-0.39046 -0.52917,-0.39047 -0.3175,-0.61596 -0.3175,-0.61597 -0.0614,-14.15431 -0.0614,-14.15432 1.43726,0.15132 1.43727,0.15132 0.99775,0.42618 0.99774,0.42618 0.94237,1.00746 0.94236,1.00746 0.52229,1.03353 0.5223,1.03352 0.52987,1.69333 0.52986,1.69334 0.14842,0.89958 0.14842,0.89958 h 0.61639 0.6164 l 0.001,-4.07458 10e-4,-4.07458 0.13185,-1.69334 0.13186,-1.69333 H 100.78581 86.443729 l 0.13186,1.69333 0.13185,1.69334 0.001,4.07458 0.001,4.07458 h 0.58534 0.58533 l 0.48825,-1.90603 0.48824,-1.90603 0.52352,-1.28837 0.52351,-1.28837 0.50116,-0.77435 0.50116,-0.77435 0.58133,-0.60924 0.58133,-0.60925 1.0775,-0.48577 1.0775,-0.48578 1.43587,-0.14748 1.43588,-0.14749 -0.06,14.26001 -0.06,14.26 -0.30579,0.59796 -0.30579,0.59796 -0.60967,0.31527 -0.60967,0.31527 -1.46579,0.12289 -1.46579,0.12288 4e-5,0.55139 3e-5,0.55138 8.625381,-0.0436 8.62539,-0.0436 z"
           id="path179"
           clip-path="url(#clipPath351)"
           transform="translate(-6.674938,-2.3026827)" /><path
           id="path2771"
           style="fill:#ff6600;stroke:none;stroke-width:0.467368;stroke-opacity:1"
           d="m 77.867867,71.650095 c -24.779673,-5.4e-5 -44.867621,20.087835 -44.867711,44.867585 -2.6e-5,12.03766 4.740452,22.96812 12.45643,31.02637 8.167572,8.52987 19.669131,13.8415 32.411281,13.84147 24.779773,5e-5 44.867763,-20.08799 44.867713,-44.86784 -9e-5,-24.77975 -20.08804,-44.867639 -44.867713,-44.867585 z m 0,0.997 c 24.228963,5.8e-5 43.870393,19.641552 43.870453,43.870585 9e-5,24.22913 -19.64139,43.87078 -43.870453,43.87084 -11.559755,-3e-5 -22.075253,-4.47102 -29.911605,-11.77806 -8.588517,-8.00841 -13.958897,-19.42344 -13.958851,-32.09278 3.2e-5,-13.82929 6.398884,-26.16405 16.39732,-34.205019 7.518903,-6.046873 17.073428,-9.665542 27.473136,-9.665566 z"
           sodipodi:nodetypes="ccscsccscscsc" /></g></g></g></svg>
